<?xml version="1.0" encoding="utf-8"?>
<!-- Generator: Adobe Illustrator 20.1.0, SVG Export Plug-In . SVG Version: 6.00 Build 0)  -->
<svg version="1.1" id="Layer_1" xmlns="http://www.w3.org/2000/svg" xmlns:xlink="http://www.w3.org/1999/xlink" x="0px" y="0px"
	 viewBox="0 0 274.5 176.1" style="enable-background:new 0 0 274.5 176.1;" xml:space="preserve">
<style type="text/css">
	.st0{fill:#882B87;}
	.st1{fill:#F39200;}
	.st2{fill:#575756;}
</style>
<g>
	<g>
		<g>
			<path class="st0" d="M267.7,113.1c-3.8,0-6.8,3.1-6.8,6.8c0,3.8,3.1,6.8,6.8,6.8c3.8,0,6.8-3.1,6.8-6.8
				C274.5,116.1,271.5,113.1,267.7,113.1z M267.7,125.6c-3.2,0-5.7-2.6-5.7-5.7c0-3.2,2.6-5.7,5.7-5.7c3.2,0,5.7,2.6,5.7,5.7
				C273.4,123.1,270.9,125.6,267.7,125.6z"/>
		</g>
	</g>
	<path class="st0" d="M23,113.2h5.7v14.6H14.4h-0.5l-0.7,0.1c-2.8,0.4-4.9,1.7-6.6,4l-0.4,0.7l-0.3,0.8c-1.5,5,1.3,10.2,6.5,11.2
		c1.6,0.3,3.4,0.2,4.9-0.4c6.7-2.7,5.7-8.9,5.7-15.1h5.7c0,4.6,0.6,8.9-1.4,13c-4,8.3-15.6,10.8-22.3,4.6c-3.9-3.2-5.7-8.5-4.6-13.5
		l0.2-0.8l0.3-0.9c2-4.9,5.3-7.8,10.4-9.2c0.2,0,0.4-0.1,0.6-0.1s0.4-0.1,0.6-0.1s0.4,0,0.6-0.1c0.2,0,0.5,0,0.7-0.1
		c0.2,0,0.5,0,0.7,0h8.6v-8.7H23z"/>
	<polygon class="st0" points="68.5,129.2 74.1,129.2 74.1,150.3 68.5,150.3 	"/>
	<polygon class="st0" points="68.5,122.2 74.1,122.2 74.1,127.8 68.5,127.8 	"/>
	<path class="st0" d="M60.7,129.2h5.6c0,8,0,15.9,0,24v0.5c0,2.7-1.5,4.4-4,5.1h-0.4h-3.7l0,0H44.4v-5.6h13.8h0.1h0.3
		c1.9-0.1,2.1-0.4,2.2-2.8c0-1.1,0-2.2,0-2.8l-0.3,0.2l-0.3,0.2l-0.5,0.3c-4.7,2.7-9.6,2.5-14.3-0.2l-0.5-0.3l-0.8-0.6
		c-9.4-7.4-4.9-23.2,6.3-24.9l0.6-0.1l0.8-0.1h0.6h0.1h0.8h13.4v5.6H53h-0.9l0,0l-0.4,0.1l-0.8,0.1l-0.9,0.2l-1,0.4
		c-5.4,3.3-6.3,10.4-1.3,14.5c0.3,0.2,0.5,0.4,0.8,0.5l0.5,0.3c0.6,0.3,1.3,0.5,1.9,0.7c4.6,1,8.4-2.2,9.6-6.5l0.1-0.5l0.1-0.5v-0.6
		L60.7,129.2L60.7,129.2z"/>
	<polygon class="st0" points="31,129.2 36.7,129.2 36.7,150.3 31,150.3 	"/>
	<polygon class="st0" points="31,127.7 32.4,122.1 38.1,122.1 36.7,127.7 	"/>
	<polygon class="st0" points="88.2,127.8 84.8,127.8 84.8,150.4 79.2,150.4 79.2,127.8 76.3,127.8 76.3,122.2 79.2,122.2 
		79.2,113.3 84.8,113.3 84.8,122.2 88.2,122.2 	"/>
	<path class="st0" d="M133.2,150.6l-0.5,0.1c-1.1,0.3-2.4,0.5-3.5,0.5h-0.6c-10.7,0-17.2-12.8-11.4-21.6l0.3-0.6l0.3-0.3
		c3.7-4.4,9.7-6.6,15.2-5.1c3,0.9,5.7,2.7,7.5,5.3C146.2,136.7,142.4,147.8,133.2,150.6L133.2,150.6z M133,129.5l-0.4-0.2
		c-2.5-1-4.9-1-7.3,0.2c-5.2,2.7-6,8.7-2.6,13.1c4,5.3,12.9,2.8,14.6-3.4C138.4,135.2,136.5,131.6,133,129.5L133,129.5z"/>
	<path class="st0" d="M113,139c0-3.5,0.1-6.9-1.7-10.3c-7-10.5-20.6-4.5-20.6,7.3c0,4.6,0,9.3,0,13.9h5.8v-13.4v-0.9l0,0l0,0l0,0
		v-0.2v-0.2l0.1-0.8l0.2-0.9c2.6-6.4,9.3-4.7,10.6,1c0.2,1,0.2,2.6,0.2,4.1l-0.1,11.6h5.5V139L113,139z"/>
	<polygon class="st0" points="90.7,113.3 96.5,113.3 96.5,150.3 90.7,150.3 	"/>
	<path class="st1" d="M211.8,129.2h0.1l0,0h5.7v21.3h-5.7V148c-0.4,0.2-0.8,0.4-1.3,0.7c-4.7,2.5-9.7,2.3-14.4-0.2l-0.5-0.3
		l-0.8-0.6c-6.3-5-6.4-13.9-2.4-19.7l-0.6-0.1c-4.6,0-8.1,0.6-8.4,6.5v1.7v14.7h-6l0.1-28.6h5.9v1.9c2-1.2,4.5-1.9,7.6-1.9
		c8.8,0,17.6,0,26.4,0v5.8H204h-0.9l0,0l0,0l0,0h-0.2h-0.2l-0.8,0.1l-0.9,0.2l-1,0.4c-5.4,3.3-6.4,10.6-1.3,14.7
		c0.3,0.2,0.5,0.4,0.8,0.5l0.5,0.3c0.6,0.3,1.3,0.6,2,0.7c4.6,1,8.5-2.3,9.6-6.6l0.1-0.5l0.1-0.5v-0.6L211.8,129.2L211.8,129.2z
		 M228.3,122h11.3v5.7H233c-1.7,0-3.6,0-5.3,0c-1.1,0-1.3,1.2,0,1.4l4.3,0.5c6.6,0.7,12,3,11.9,10.5s-5.4,10.7-11.9,10.5
		c-6.6-0.1-11.5-4.2-11.9-9.8h6c0.5,2.5,2.8,4.1,5.9,4.1c3.1,0.2,6.1-1.2,6.2-4.5c0-9.3-17.3-0.9-17.3-12.1
		C221,123.4,225,121.9,228.3,122L228.3,122z M259.7,113.1h-5.5v37.4h5.6L259.7,113.1L259.7,113.1z M246.1,122h5.8v5.8h-5.8V122
		L246.1,122z M251.9,150.5h-5.8v-21.4h5.8V150.5L251.9,150.5z M151.8,113.1H146v14.7h14.5h0.5l0.7,0.1c2.9,0.4,5,1.7,6.7,4.1
		l0.4,0.7l0.3,0.8c1.6,5.1-1.3,10.4-6.6,11.4c-1.6,0.3-3.5,0.2-5-0.4c-6.8-2.7-5.8-9-5.8-15.3H146c0,4.6-0.6,9,1.4,13.2
		c4.1,8.4,15.8,10.8,22.7,4.7c4-3.3,5.8-8.7,4.7-13.7l-0.2-0.8l-0.3-0.9c-2-5-5.4-7.9-10.6-9.4c-0.2,0-0.4-0.1-0.6-0.1
		s-0.4-0.1-0.6-0.1s-0.4,0-0.6-0.1c-0.2,0-0.5,0-0.7-0.1c-0.2,0-0.5,0-0.7,0h-8.7L151.8,113.1L151.8,113.1z"/>
	<path class="st0" d="M269.1,118.1L269.1,118.1L269.1,118.1h1.3v5h-1.3v-0.6c-0.1,0-0.2,0.1-0.3,0.2c-1.1,0.6-2.3,0.5-3.3-0.1
		l-0.1-0.1l-0.2-0.1c-1.5-1.2-1.5-3.2-0.6-4.6c0.6-0.8,1.6-1.4,2.6-1.4c1.1,0,2.2,0,3.3,0v1.3h-3.1h-0.2l0,0l0,0l0,0h-0.1l0,0h-0.2
		l-0.2,0.1l-0.2,0.1c-1.3,0.8-1.5,2.5-0.3,3.4c0.1,0,0.1,0.1,0.2,0.1l0.1,0.1c0.1,0.1,0.3,0.1,0.5,0.2c1.1,0.2,2-0.5,2.2-1.5v-0.1
		V120v-0.1v-1.8H269.1z"/>
	<path class="st0" d="M106.4,83.4C96.9,84.2,90.5,73,97,65.1c-3.7,7.4,2.2,15.8,10.2,15.2c4.6-0.6,9.2-4,11-9.5c1-3,2.2-6.4,3.4-9.7
		c-0.3,0.7-0.6,1.3-0.9,2c-2.1,4.9-4,9.5-6.7,12.6c-3.4,4-9.5,4.5-13.5,1.1c-4-3.4-4.5-9.5-1.1-13.5c2.9-3.3,7.2-5.9,11.7-8.6
		c7.3-4.4,17.2-9.5,21.4-18.6c1.2-2.6,2.2-5.4,3.2-8c4.1-11.2,8.6-20.8,17.9-22.3c6.8-1.1,13.1,3.6,13.2,11.2
		c0.1,5.3-2.7,9.9-9.6,13.2c-23,10.8-29.8,17.7-37.6,42.6C117.6,79.1,112,82.9,106.4,83.4L106.4,83.4z M137,30.3
		c3.4-6.7,5.5-14.7,11.1-19c4.2-3.3,9.2-4.5,13.1-0.8s3.7,9.5,0,13.4c-2.6,2.7-6,4.3-10.3,6.5c-1.5,0.8-1.5,0.6-2.9,1.5
		c3.3-1.6,5.4-2.2,9.2-3.6C169,24,168.5,6.5,153.9,7.5C144.5,8.1,140.3,20.1,137,30.3L137,30.3z"/>
	<path class="st1" d="M96.5,46.9c-4.8-1-10-6.2-9.4-11.1c-0.8,2.9-0.5,6,1.3,8.4c6,8.3,25.5,2.4,34.6,1.9
		C113.5,44.9,105.5,48.7,96.5,46.9L96.5,46.9z M148.3,84.5c4.1-7.9-8.5-27.1-15.4-32.1c-3.6-2.6-8-3.7-12.1-3.8
		c-8.9-0.4-23.5,10-34.9-3.4c-4.5-5.3-2.9-13.9,3.6-17.8c6.1-3.7,12.9,0.3,18.6,4.5c0.9,0.5,1.9,1.1,2.8,1.6
		c1.1,0.6,14.4,8.3,11.8,4.6c-8.8-12.4-17.3-23.5-12-32.3c4.3-7.9,15.7-7.3,21.2-0.9c6.4,7.5,0.5,17.2,0.8,27.2
		c-1.7-4,4.5-17.6-2.1-25.6c-4.8-5.8-14.1-4.9-17.7,1.6c-3.7,6.7,1.5,15.1,8.8,24.6c2.1,2.7,9.2,10.8,19.4,9.5
		c15.6-2,29.2-5,34.2,3.9c5.1,7.4-0.6,17.3-8.8,19.3c-9.5,2.3-15.6-7.3-24.6-11.5c4.3,0.2,13.7,11.9,23.8,9.6
		c7.3-1.7,10.8-10.4,6.6-16.5c-4.3-6.3-16-4.8-27.8-2.7c2.2,0.1,6.2-0.4,8.2-0.5c4.8-0.3,9.3-0.7,13.1,0.3c5,1.3,8,6.6,6.8,11.8
		c-1.3,5.2-6.4,8.3-11.4,6.9c-3.6-1-7.1-3.5-11-6.1c-38.4-26,7.2,10.5-0.4,28.6c-2.7,6.4-10.7,9.7-17.1,5.7
		c-7.6-4.7-4.6-14.7-4.2-21.9c0.6-12.4,0.8-12.1,1.1-6.9c0.4,6.2-1,21.4,3.8,25.8C137.1,91.3,145.1,90.8,148.3,84.5L148.3,84.5z"/>
	<path class="st2" d="M4.8,167.5l-1.1,1c-0.4-0.5-0.8-0.8-1.2-0.8c-0.2,0-0.3,0.1-0.5,0.2c-0.1,0.1-0.2,0.2-0.2,0.3s0,0.3,0.1,0.4
		c0.1,0.2,0.5,0.5,1.1,1s0.9,0.8,1,0.9c0.3,0.3,0.5,0.6,0.6,0.9c0.1,0.3,0.2,0.6,0.2,0.9c0,0.6-0.2,1.2-0.7,1.6
		c-0.4,0.4-1,0.6-1.7,0.6c-0.5,0-1-0.1-1.4-0.4c-0.4-0.3-0.8-0.7-1-1.3l1.2-0.8c0.4,0.7,0.8,1,1.3,1c0.3,0,0.5-0.1,0.6-0.2
		c0.2-0.1,0.3-0.3,0.3-0.5s-0.1-0.4-0.2-0.5c-0.1-0.2-0.4-0.4-0.9-0.8c-0.8-0.7-1.4-1.2-1.6-1.6c-0.2-0.4-0.4-0.7-0.4-1.1
		c0-0.5,0.2-1,0.6-1.4s0.9-0.6,1.5-0.6c0.4,0,0.8,0.1,1.1,0.3C4,166.7,4.4,167,4.8,167.5L4.8,167.5z"/>
	<path class="st2" d="M16.6,166.2c1.1,0,2,0.4,2.8,1.2s1.2,1.8,1.2,2.9c0,1.1-0.4,2.1-1.2,2.9c-0.8,0.8-1.7,1.2-2.8,1.2
		c-1.2,0-2.1-0.4-2.9-1.2s-1.1-1.8-1.1-2.9c0-0.7,0.2-1.4,0.5-2c0.4-0.6,0.8-1.1,1.5-1.5C15.2,166.4,15.9,166.2,16.6,166.2
		L16.6,166.2z M16.6,167.7c-0.7,0-1.3,0.2-1.8,0.8c-0.5,0.5-0.7,1.1-0.7,1.9c0,0.9,0.3,1.5,0.9,2c0.5,0.4,1,0.6,1.6,0.6
		c0.7,0,1.3-0.3,1.8-0.8s0.7-1.1,0.7-1.9c0-0.7-0.2-1.4-0.7-1.9C17.9,167.9,17.3,167.7,16.6,167.7L16.6,167.7z"/>
	<polygon class="st2" points="28.6,166.4 30,166.4 30,172.8 32.2,172.8 32.2,174.2 28.6,174.2 	"/>
	<path class="st2" d="M39.8,166.4h1.5v5c0,0.4,0,0.7,0.1,0.9s0.2,0.3,0.4,0.4c0.2,0.1,0.4,0.2,0.6,0.2c0.3,0,0.5-0.1,0.7-0.2
		c0.2-0.1,0.3-0.3,0.4-0.5s0.1-0.5,0.1-1.1v-4.8h1.5v4.6c0,0.8,0,1.3-0.1,1.6s-0.3,0.6-0.5,0.9c-0.2,0.3-0.5,0.5-0.9,0.6
		c-0.3,0.1-0.7,0.2-1.1,0.2c-0.6,0-1-0.1-1.5-0.4c-0.4-0.3-0.7-0.6-0.9-1c-0.2-0.4-0.3-1-0.3-2L39.8,166.4L39.8,166.4z"/>
	<path class="st2" d="M60.4,167.8l-1,1c-0.7-0.7-1.5-1.1-2.4-1.1c-0.7,0-1.4,0.3-1.9,0.8s-0.8,1.1-0.8,1.9c0,0.5,0.1,1,0.3,1.4
		c0.2,0.4,0.5,0.7,0.9,0.9s0.9,0.3,1.4,0.3c0.4,0,0.8-0.1,1.2-0.2c0.4-0.2,0.7-0.5,1.2-0.9l1,1c-0.6,0.6-1.1,0.9-1.6,1.2
		c-0.5,0.2-1.1,0.3-1.7,0.3c-1.2,0-2.2-0.4-2.9-1.1c-0.8-0.8-1.1-1.7-1.1-2.9c0-0.8,0.2-1.5,0.5-2.1s0.8-1.1,1.5-1.5
		c0.6-0.4,1.3-0.5,2.1-0.5c0.6,0,1.2,0.1,1.8,0.4C59.5,166.9,60,167.3,60.4,167.8L60.4,167.8z M56.2,174.1h0.9l-0.1,0.2
		c0.2,0.1,0.4,0.2,0.6,0.3c0.1,0.2,0.2,0.3,0.2,0.5c0,0.3-0.1,0.5-0.4,0.7c-0.2,0.2-0.6,0.3-1,0.3c-0.3,0-0.7-0.1-1.2-0.2l0.2-0.7
		c0.3,0.1,0.5,0.1,0.7,0.1s0.3,0,0.4-0.1s0.1-0.2,0.1-0.3s0-0.2-0.1-0.2c-0.1-0.1-0.2-0.1-0.3-0.1h-0.3L56.2,174.1L56.2,174.1z"/>
	<path class="st2" d="M72,166.2c1.1,0,2,0.4,2.8,1.2s1.2,1.8,1.2,2.9c0,1.1-0.4,2.1-1.2,2.9c-0.8,0.8-1.7,1.2-2.8,1.2
		c-1.2,0-2.1-0.4-2.9-1.2s-1.1-1.8-1.1-2.9c0-0.7,0.2-1.4,0.5-2c0.4-0.6,0.8-1.1,1.5-1.5C70.6,166.4,71.2,166.2,72,166.2L72,166.2z
		 M71.9,167.7c-0.7,0-1.3,0.2-1.8,0.8c-0.5,0.5-0.7,1.1-0.7,1.9c0,0.9,0.3,1.5,0.9,2c0.5,0.4,1,0.6,1.6,0.6c0.7,0,1.3-0.3,1.8-0.8
		s0.7-1.1,0.7-1.9c0-0.7-0.2-1.4-0.7-1.9C73.2,167.9,72.6,167.7,71.9,167.7L71.9,167.7z M70.3,165.8l-0.6-0.9
		c0.4-0.3,0.9-0.5,1.4-0.5c0.2,0,0.5,0.1,0.9,0.2c0.3,0.1,0.5,0.1,0.7,0.1c0.3,0,0.6-0.1,0.9-0.3l0.5,0.8c-0.4,0.4-0.9,0.6-1.3,0.6
		c-0.2,0-0.5,0-0.8-0.1s-0.4-0.1-0.5-0.1s-0.2,0-0.3,0C70.9,165.5,70.6,165.6,70.3,165.8L70.3,165.8z"/>
	<polygon class="st2" points="83.9,166.4 88.1,166.4 88.1,167.9 85.4,167.9 85.4,169.3 88.1,169.3 88.1,170.7 85.4,170.7 
		85.4,172.7 88.1,172.7 88.1,174.2 83.9,174.2 	"/>
	<path class="st2" d="M100.1,167.5l-1.1,1c-0.4-0.5-0.8-0.8-1.2-0.8c-0.2,0-0.3,0.1-0.5,0.2c-0.1,0.1-0.2,0.2-0.2,0.3s0,0.3,0.1,0.4
		c0.1,0.2,0.5,0.5,1.1,1s0.9,0.8,1,0.9c0.3,0.3,0.5,0.6,0.6,0.9c0.1,0.3,0.2,0.6,0.2,0.9c0,0.6-0.2,1.2-0.7,1.6
		c-0.4,0.4-1,0.6-1.7,0.6c-0.5,0-1-0.1-1.4-0.4c-0.4-0.3-0.8-0.7-1-1.3l1.2-0.8c0.4,0.7,0.8,1,1.3,1c0.3,0,0.5-0.1,0.6-0.2
		c0.2-0.1,0.3-0.3,0.3-0.5s-0.1-0.4-0.2-0.5c-0.1-0.2-0.4-0.4-0.9-0.8c-0.8-0.7-1.4-1.2-1.6-1.6c-0.2-0.4-0.4-0.7-0.4-1.1
		c0-0.5,0.2-1,0.6-1.4s0.9-0.6,1.5-0.6c0.4,0,0.8,0.1,1.1,0.3C99.4,166.7,99.7,167,100.1,167.5L100.1,167.5z"/>
	<polygon class="st2" points="120.3,166.4 124.5,166.4 124.5,167.9 121.8,167.9 121.8,169.3 124.5,169.3 124.5,170.7 121.8,170.7 
		121.8,172.7 124.5,172.7 124.5,174.2 120.3,174.2 	"/>
	<polygon class="st2" points="133.2,166.4 134.7,166.4 136.4,171.8 138.2,166.4 139.7,166.4 141,174.2 139.5,174.2 138.7,169.3 
		137.1,174.2 135.8,174.2 134.2,169.3 133.3,174.2 131.9,174.2 	"/>
	<path class="st2" d="M164.8,167.5l-1.1,1c-0.4-0.5-0.8-0.8-1.2-0.8c-0.2,0-0.3,0.1-0.5,0.2c-0.1,0.1-0.2,0.2-0.2,0.3s0,0.3,0.1,0.4
		c0.1,0.2,0.5,0.5,1.1,1s0.9,0.8,1,0.9c0.3,0.3,0.5,0.6,0.6,0.9c0.1,0.3,0.2,0.6,0.2,0.9c0,0.6-0.2,1.2-0.7,1.6
		c-0.4,0.4-1,0.6-1.7,0.6c-0.5,0-1-0.1-1.4-0.4c-0.4-0.3-0.8-0.7-1-1.3l1.2-0.8c0.4,0.7,0.8,1,1.3,1c0.3,0,0.5-0.1,0.6-0.2
		c0.2-0.1,0.3-0.3,0.3-0.5s-0.1-0.4-0.2-0.5c-0.1-0.2-0.4-0.4-0.9-0.8c-0.8-0.7-1.4-1.2-1.6-1.6c-0.2-0.4-0.4-0.7-0.4-1.1
		c0-0.5,0.2-1,0.6-1.4s0.9-0.6,1.5-0.6c0.4,0,0.8,0.1,1.1,0.3C164,166.7,164.4,167,164.8,167.5L164.8,167.5z"/>
	<path class="st2" d="M176.6,166.2c1.1,0,2,0.4,2.8,1.2s1.2,1.8,1.2,2.9c0,1.1-0.4,2.1-1.2,2.9c-0.8,0.8-1.7,1.2-2.8,1.2
		c-1.2,0-2.1-0.4-2.9-1.2s-1.1-1.8-1.1-2.9c0-0.7,0.2-1.4,0.5-2c0.4-0.6,0.8-1.1,1.5-1.5C175.2,166.4,175.9,166.2,176.6,166.2
		L176.6,166.2z M176.6,167.7c-0.7,0-1.3,0.2-1.8,0.8c-0.5,0.5-0.7,1.1-0.7,1.9c0,0.9,0.3,1.5,0.9,2c0.5,0.4,1,0.6,1.6,0.6
		c0.7,0,1.3-0.3,1.8-0.8s0.7-1.1,0.7-1.9c0-0.7-0.2-1.4-0.7-1.9C177.9,167.9,177.3,167.7,176.6,167.7L176.6,167.7z"/>
	<polygon class="st2" points="188.6,166.4 192.4,166.4 192.4,167.9 190,167.9 190,169.3 192.4,169.3 192.4,170.7 190,170.7 
		190,174.2 188.6,174.2 	"/>
	<polygon class="st2" points="199.5,166.4 203.8,166.4 203.8,167.9 202.4,167.9 202.4,174.2 200.9,174.2 200.9,167.9 199.5,167.9 	
		"/>
	<polygon class="st2" points="210.8,166.4 212.2,166.4 213.4,171.4 214.7,166.4 216,166.4 217.4,171.4 218.5,166.4 219.9,166.4 
		218.2,174.2 216.8,174.2 215.3,169.2 213.9,174.2 212.5,174.2 	"/>
	<path class="st2" d="M230,166.4h1.5l3,7.8H233l-0.6-1.6h-3.1l-0.6,1.6H227L230,166.4L230,166.4z M230.7,168.5l-1,2.7h2.1
		L230.7,168.5L230.7,168.5z"/>
	<path class="st2" d="M242.3,166.4h1.6c0.9,0,1.5,0.1,1.8,0.2c0.4,0.2,0.7,0.4,0.9,0.8c0.2,0.4,0.3,0.8,0.3,1.3s-0.1,0.9-0.4,1.3
		c-0.2,0.3-0.6,0.6-1.1,0.8l1.8,3.5h-1.6l-1.7-3.3h-0.1v3.3h-1.5L242.3,166.4L242.3,166.4z M243.7,169.5h0.5c0.5,0,0.8-0.1,1-0.2
		c0.2-0.1,0.3-0.3,0.3-0.6c0-0.2,0-0.3-0.1-0.4c-0.1-0.1-0.2-0.2-0.4-0.3c-0.1-0.1-0.4-0.1-0.8-0.1h-0.4v1.6H243.7z"/>
	<polygon class="st2" points="255,166.4 259.2,166.4 259.2,167.9 256.5,167.9 256.5,169.3 259.2,169.3 259.2,170.7 256.5,170.7 
		256.5,172.7 259.2,172.7 259.2,174.2 255,174.2 	"/>
</g>
</svg>
