<?xml version="1.0" encoding="utf-8"?>
<!-- Generator: Adobe Illustrator 20.1.0, SVG Export Plug-In . SVG Version: 6.00 Build 0)  -->
<svg version="1.1" id="Layer_1" xmlns="http://www.w3.org/2000/svg" xmlns:xlink="http://www.w3.org/1999/xlink" x="0px" y="0px"
	 viewBox="0 0 425.5 83.7" style="enable-background:new 0 0 425.5 83.7;" xml:space="preserve">
<style type="text/css">
	.st0{fill:#832C87;}
	.st1{fill:#F18700;}
	.st2{fill:#575756;}
</style>
<g>
	<path class="st0" d="M109.7,8.1h7.2v18.3H99h-0.6l-0.9,0.1c-3.5,0.5-6.2,2.1-8.2,5.1l-0.6,0.9l-0.4,1c-1.9,6.3,1.6,12.8,8.2,14.1
		c2,0.4,4.3,0.2,6.1-0.5c8.4-3.4,7.1-11.2,7.2-18.9h7.2c0,5.7,0.7,11.2-1.8,16.4c-5,10.5-19.6,13.6-28,5.8c-5-4-7.1-10.7-5.8-16.9
		l0.2-1l0.4-1.1c2.5-6.1,6.7-9.8,13.1-11.6c0.2-0.1,0.5-0.1,0.7-0.2c0.2,0,0.5-0.1,0.7-0.1c0.3,0,0.5-0.1,0.8-0.1s0.6-0.1,0.9-0.1
		s0.6,0,0.9,0h10.8V8.1H109.7z"/>
	<polygon class="st0" points="166.9,28.1 174,28.1 174,54.6 166.9,54.6 	"/>
	<polygon class="st0" points="166.9,19.3 174,19.3 174,26.4 166.9,26.4 	"/>
	<path class="st0" d="M157.2,28.1h7c0,10,0,20,0,30.1v0.6c0,3.3-1.9,5.5-5,6.4h-0.5H154v0.1h-17.4v-7.1h17.3h0.1h0.4
		c2.4-0.2,2.6-0.5,2.7-3.5c0-1.3,0-2.7,0-3.5l-0.4,0.3l-0.4,0.3l-0.7,0.4c-5.9,3.4-12.1,3.1-17.9-0.3l-0.6-0.4l-1-0.8
		c-11.8-9.2-6.2-29.1,7.9-31.3l0.7-0.1l1-0.2h0.7h0.1h1h16.8v7.1h-16.8h-1.1l0,0l-0.5,0.1l-1,0.1l-1.2,0.3l-1.3,0.5
		c-6.8,4.1-7.9,13.1-1.6,18.2c0.3,0.3,0.6,0.5,1,0.7l0.6,0.3c0.8,0.4,1.6,0.7,2.4,0.9c5.7,1.2,10.6-2.8,12-8.2l0.1-0.7l0.1-0.6
		l0.1-0.7L157.2,28.1L157.2,28.1z"/>
	<polygon class="st0" points="119.8,28.2 127,28.2 127,54.6 119.8,54.6 	"/>
	<polygon class="st0" points="119.8,26.3 121.6,19.3 128.8,19.3 127,26.3 	"/>
	<polygon class="st0" points="191.7,26.4 187.4,26.4 187.4,54.7 180.3,54.7 180.3,26.4 176.7,26.4 176.7,19.3 180.3,19.3 180.3,8.2 
		187.4,8.2 187.4,19.3 191.7,19.3 	"/>
	<path class="st0" d="M248.1,55l-0.6,0.2c-1.4,0.4-3,0.6-4.4,0.6h-0.7c-13.5,0-21.6-16.1-14.3-27.2l0.4-0.8l0.3-0.4
		c4.6-5.5,12.1-8.3,19.1-6.4c3.8,1.2,7.1,3.4,9.5,6.6C264.5,37.5,259.7,51.6,248.1,55L248.1,55z M248,28.6l-0.5-0.3
		c-3.1-1.3-6.1-1.3-9.2,0.2c-6.5,3.4-7.5,10.9-3.3,16.4c5.1,6.6,16.2,3.5,18.3-4.2C254.7,35.7,252.3,31.2,248,28.6L248,28.6z"/>
	<path class="st0" d="M222.8,40.5c0-4.4,0.1-8.7-2.1-12.9c-8.8-13.2-25.9-5.6-25.9,9.1c0,5.8,0,11.6,0,17.5h7.3V37.4v-1.1l0,0l0,0
		c0,0,0,0,0.1,0V36v-0.2l0.1-1l0.3-1.2c3.2-8.1,11.7-5.9,13.3,1.2c0.3,1.3,0.2,3.2,0.2,5.2L216,54.6h6.9L222.8,40.5L222.8,40.5z"/>
	<polygon class="st0" points="194.8,8.2 202.1,8.2 202.1,54.6 194.8,54.6 	"/>
	<path class="st1" d="M346.8,28.1L346.8,28.1L346.8,28.1h7.2v26.8h-7v-3.1c-0.5,0.2-1.1,0.5-1.6,0.9c-5.9,3.1-12.1,2.9-18.1-0.3
		l-0.6-0.4l-1-0.8c-7.9-6.3-8-17.4-3-24.7l-0.8-0.1c-5.7,0-10.2,0.8-10.5,8.1v2.1l0.1,18.4H304l0.1-35.9h7.4v2.4
		c2.5-1.5,5.6-2.3,9.6-2.4c11,0,22.1,0,33.1,0v7.3h-16.9H336l0,0l0,0c0,0,0,0,0,0.1h-0.3h-0.2l-1,0.1l-1.2,0.3l-1.3,0.5
		c-6.8,4.2-8,13.3-1.6,18.4c0.3,0.3,0.7,0.5,1,0.7l0.6,0.3c0.8,0.4,1.6,0.7,2.5,0.9c5.8,1.2,10.6-2.8,12.1-8.3l0.1-0.7l0.1-0.6
		l0.1-0.7L346.8,28.1L346.8,28.1z M367.6,19.1h14.2v7.2h-8.2c-2.1,0-4.6,0-6.7,0c-1.4,0-1.6,1.5,0.1,1.7l5.4,0.6
		c8.3,0.9,15.1,3.8,15,13.2s-6.7,13.4-15,13.2c-8.3-0.1-14.5-5.3-15-12.3h7.5c0.6,3.1,3.5,5.2,7.4,5.2c3.9,0.3,7.6-1.6,7.8-5.7
		c0-11.7-21.7-1.1-21.7-15.2C358.4,20.8,363.5,19,367.6,19.1L367.6,19.1z M407,7.9h-6.9v47h7L407,7.9L407,7.9z M390,19.1h7.2v7.2
		H390V19.1L390,19.1z M397.3,55H390V28.2h7.3V55L397.3,55z M271.6,7.9h-7.3v18.4h18.2h0.6l0.9,0.1c3.6,0.6,6.2,2.2,8.4,5.2l0.6,0.9
		l0.4,1c2,6.4-1.7,13-8.3,14.3c-2,0.4-4.3,0.2-6.2-0.5c-8.6-3.4-7.3-11.3-7.3-19.3h-7.3c0,5.8-0.8,11.4,1.8,16.6
		c5.1,10.5,19.9,13.6,28.5,5.9c5-4.1,7.2-10.9,5.9-17.2l-0.2-1l-0.4-1.1c-2.6-6.2-6.8-10-13.3-11.8c-0.2-0.1-0.5-0.1-0.7-0.2
		c-0.2,0-0.5-0.1-0.7-0.1c-0.3,0-0.5-0.1-0.8-0.1s-0.6-0.1-0.9-0.1s-0.6,0-0.9,0h-11L271.6,7.9L271.6,7.9z"/>
	<path class="st0" d="M418.8,14.4L418.8,14.4L418.8,14.4h1.7v6.3h-1.7V20c-0.1,0.1-0.2,0.1-0.4,0.2c-1.4,0.7-2.8,0.7-4.2-0.1
		l-0.1-0.1l-0.2-0.2c-1.8-1.5-1.9-4.1-0.7-5.8c0.7-1,2-1.7,3.2-1.7c1.4,0,2.7,0,4.1,0V14h-3.9h-0.3l0,0l0,0l0,0h-0.1l0,0H416
		l-0.3,0.1l-0.3,0.1c-1.6,1-1.9,3.1-0.4,4.3c0.1,0.1,0.2,0.1,0.2,0.2l0.1,0.1c0.2,0.1,0.4,0.2,0.6,0.2c1.3,0.3,2.5-0.7,2.8-1.9v-0.2
		v-0.1v-0.2v-2.2H418.8z"/>
	<path class="st0" d="M417,8.1L417,8.1c2.4,0,4.5,1,6,2.5s2.5,3.7,2.5,6l0,0l0,0c0,2.4-1,4.5-2.5,6s-3.7,2.5-6,2.5l0,0l0,0
		c-2.4,0-4.5-1-6-2.5s-2.5-3.7-2.5-6l0,0l0,0c0-2.4,1-4.5,2.5-6S414.6,8.1,417,8.1L417,8.1L417,8.1z M417,9.5L417,9.5L417,9.5
		c-2,0-3.8,0.8-5.1,2.1c-1.3,1.3-2.1,3.1-2.1,5.1l0,0l0,0c0,2,0.8,3.8,2.1,5.1c1.3,1.3,3.1,2.1,5.1,2.1l0,0l0,0c2,0,3.8-0.8,5.1-2.1
		c1.3-1.3,2.1-3.1,2.1-5.1l0,0l0,0c0-2-0.8-3.8-2.1-5.1C420.8,10.3,419,9.5,417,9.5L417,9.5z"/>
	<path class="st0" d="M18,65.6c-7.5,0.6-12.5-8.2-7.4-14.3c-2.9,5.8,1.7,12.4,8,11.9c3.6-0.5,7.2-3.1,8.7-7.4c0.8-2.4,1.7-5,2.7-7.6
		c-0.2,0.5-0.5,1.1-0.7,1.6c-1.7,3.8-3.2,7.4-5.3,9.9c-2.7,3.2-7.5,3.5-10.6,0.8S9.9,53,12.6,49.9c2.2-2.6,5.6-4.6,9.2-6.8
		c5.8-3.4,13.5-7.5,16.8-14.6c1-2,1.7-4.2,2.5-6.3c3.2-8.8,6.7-16.3,14-17.5c5.4-0.9,10.3,2.9,10.4,8.8c0.1,4.2-2.1,7.8-7.6,10.3
		c-18,8.4-23.4,13.9-29.6,33.5C26.8,62.2,22.4,65.2,18,65.6L18,65.6z M42.1,23.9c2.7-5.2,4.3-11.5,8.7-14.9
		c3.3-2.6,7.2-3.5,10.3-0.6c3,2.9,2.9,7.5,0,10.5C59,21.1,56.4,22.3,53,24c-1.2,0.6-1.2,0.5-2.3,1.2c2.6-1.2,4.3-1.8,7.2-2.9
		c9.3-3.4,9-17.2-2.5-16.4C47.9,6.5,44.6,15.9,42.1,23.9L42.1,23.9z"/>
	<path class="st1" d="M10.2,36.9c-3.8-0.8-7.8-4.9-7.4-8.7c-0.6,2.3-0.4,4.7,1,6.6c4.7,6.5,20,1.9,27.2,1.5
		C23.6,35.3,17.3,38.3,10.2,36.9L10.2,36.9z M51,66.4c3.2-6.2-6.7-21.3-12.1-25.2c-2.9-2.1-6.3-2.9-9.5-3c-7-0.3-18.5,7.8-27.4-2.6
		c-3.5-4.1-2.3-10.9,2.8-14c4.8-2.9,10.1,0.3,14.6,3.5c0.7,0.4,1.5,0.8,2.2,1.3c0.9,0.5,11.3,6.5,9.2,3.6
		c-6.9-9.8-13.6-18.5-9.4-25.4c3.4-6.2,12.3-5.7,16.7-0.7c5,5.9,0.4,13.5,0.6,21.4c-1.4-3.1,3.5-13.8-1.7-20.1
		c-3.8-4.6-11.1-3.9-13.9,1.2c-2.9,5.2,1.2,11.9,6.9,19.3c1.7,2.1,7.3,8.5,15.3,7.5c12.2-1.6,22.9-4,26.9,3c4,5.8-0.4,13.6-6.9,15.2
		c-7.5,1.8-12.3-5.7-19.4-9c3.4,0.2,10.7,9.4,18.7,7.5c5.8-1.3,8.5-8.2,5.2-13C66.4,32,57.2,33.1,48,34.8c1.7,0.1,4.9-0.3,6.5-0.4
		c3.8-0.2,7.3-0.6,10.3,0.2c3.9,1,6.3,5.2,5.3,9.3c-1,4-5,6.5-9,5.4c-2.8-0.7-5.6-2.7-8.6-4.8c-30.1-20.4,5.7,8.2-0.3,22.5
		c-2.1,5-8.4,7.6-13.4,4.4c-5.9-3.7-3.6-11.5-3.3-17.2c0.5-9.8,0.6-9.5,0.9-5.4c0.3,4.8-0.7,16.8,3,20.3
		C42.1,71.8,48.4,71.4,51,66.4L51,66.4z"/>
	<path class="st2" d="M87.2,72.7l-1.4,1.2c-0.5-0.7-1-1-1.5-1c-0.2,0-0.4,0.1-0.6,0.2c-0.2,0.1-0.2,0.3-0.2,0.4
		c0,0.2,0.1,0.3,0.2,0.5c0.2,0.2,0.6,0.6,1.4,1.3c0.7,0.6,1.1,1,1.3,1.1c0.4,0.4,0.6,0.7,0.8,1.1c0.2,0.4,0.2,0.7,0.2,1.1
		c0,0.8-0.3,1.5-0.8,2c-0.6,0.5-1.3,0.8-2.2,0.8c-0.7,0-1.3-0.2-1.8-0.5s-1-0.9-1.3-1.6l1.6-0.9c0.5,0.9,1,1.3,1.6,1.3
		c0.3,0,0.6-0.1,0.8-0.3c0.2-0.2,0.3-0.4,0.3-0.6c0-0.2-0.1-0.4-0.2-0.7c-0.2-0.2-0.5-0.6-1.1-1c-1.1-0.9-1.7-1.5-2.1-2
		c-0.3-0.5-0.5-0.9-0.5-1.4c0-0.7,0.3-1.3,0.8-1.8s1.2-0.7,1.9-0.7c0.5,0,0.9,0.1,1.4,0.3C86.2,71.7,86.7,72.1,87.2,72.7L87.2,72.7z
		"/>
	<path class="st2" d="M102.1,71.2c1.4,0,2.6,0.5,3.6,1.5s1.5,2.2,1.5,3.7c0,1.4-0.5,2.6-1.5,3.6s-2.2,1.5-3.6,1.5
		c-1.5,0-2.7-0.5-3.6-1.5c-1-1-1.5-2.2-1.5-3.6c0-0.9,0.2-1.8,0.7-2.6s1.1-1.4,1.9-1.9S101.2,71.2,102.1,71.2L102.1,71.2z M102.1,73
		c-0.9,0-1.7,0.3-2.3,0.9c-0.6,0.6-0.9,1.4-0.9,2.4c0,1.1,0.4,1.9,1.2,2.6c0.6,0.5,1.3,0.7,2.1,0.7c0.9,0,1.6-0.3,2.2-1
		c0.6-0.6,0.9-1.4,0.9-2.4c0-0.9-0.3-1.7-0.9-2.4C103.8,73.3,103,73,102.1,73L102.1,73z"/>
	<polygon class="st2" points="117.3,71.4 119.1,71.4 119.1,79.4 121.8,79.4 121.8,81.2 117.3,81.2 	"/>
	<path class="st2" d="M131.5,71.4h1.9v6.4c0,0.5,0,0.9,0.1,1.2c0.1,0.2,0.3,0.4,0.5,0.5s0.5,0.2,0.8,0.2s0.6-0.1,0.8-0.2
		c0.2-0.2,0.4-0.3,0.5-0.6c0.1-0.2,0.1-0.7,0.1-1.3v-6.1h1.9v5.9c0,1-0.1,1.7-0.2,2.1c-0.1,0.4-0.3,0.8-0.6,1.1
		c-0.3,0.4-0.7,0.6-1.1,0.8s-0.9,0.3-1.4,0.3c-0.7,0-1.3-0.2-1.8-0.5s-0.9-0.7-1.1-1.2s-0.3-1.3-0.3-2.5L131.5,71.4L131.5,71.4z"/>
	<path class="st2" d="M157.6,73.1l-1.3,1.2c-0.9-0.9-1.9-1.4-3-1.4c-0.9,0-1.7,0.3-2.4,1c-0.6,0.6-1,1.4-1,2.4
		c0,0.7,0.1,1.2,0.4,1.7s0.7,0.9,1.2,1.2s1.1,0.4,1.7,0.4c0.5,0,1-0.1,1.5-0.3c0.4-0.2,0.9-0.6,1.5-1.1l1.3,1.3
		c-0.7,0.7-1.4,1.2-2,1.5s-1.4,0.4-2.2,0.4c-1.5,0-2.8-0.5-3.7-1.5c-1-1-1.4-2.2-1.4-3.7c0-1,0.2-1.9,0.7-2.6
		c0.4-0.8,1.1-1.4,1.9-1.8c0.8-0.5,1.7-0.7,2.6-0.7c0.8,0,1.6,0.2,2.3,0.5C156.4,72,157,72.5,157.6,73.1L157.6,73.1z M152.2,81.1
		h1.1l-0.1,0.3c0.3,0.1,0.5,0.2,0.7,0.4s0.3,0.4,0.3,0.6c0,0.4-0.1,0.7-0.5,0.9c-0.3,0.3-0.7,0.4-1.3,0.4c-0.4,0-0.9-0.1-1.5-0.3
		l0.2-0.9c0.3,0.1,0.6,0.2,0.9,0.2c0.2,0,0.4,0,0.5-0.1s0.2-0.2,0.2-0.3s0-0.2-0.1-0.3s-0.2-0.1-0.4-0.1h-0.4L152.2,81.1L152.2,81.1
		z"/>
	<path class="st2" d="M172.1,71.2c1.4,0,2.6,0.5,3.6,1.5s1.5,2.2,1.5,3.7c0,1.4-0.5,2.6-1.5,3.6s-2.2,1.5-3.6,1.5
		c-1.5,0-2.7-0.5-3.6-1.5c-1-1-1.5-2.2-1.5-3.6c0-0.9,0.2-1.8,0.7-2.6s1.1-1.4,1.9-1.9S171.2,71.2,172.1,71.2L172.1,71.2z M172.1,73
		c-0.9,0-1.7,0.3-2.3,0.9c-0.6,0.6-0.9,1.4-0.9,2.4c0,1.1,0.4,1.9,1.2,2.6c0.6,0.5,1.3,0.7,2.1,0.7c0.9,0,1.6-0.3,2.2-1
		c0.6-0.6,0.9-1.4,0.9-2.4c0-0.9-0.3-1.7-0.9-2.4C173.8,73.3,173,73,172.1,73L172.1,73z M170.1,70.6l-0.7-1.1
		c0.6-0.4,1.1-0.7,1.7-0.7c0.2,0,0.6,0.1,1.1,0.2c0.4,0.1,0.6,0.1,0.9,0.1c0.4,0,0.8-0.1,1.2-0.3l0.7,1c-0.6,0.5-1.1,0.7-1.6,0.7
		c-0.3,0-0.6-0.1-1-0.2c-0.3-0.1-0.5-0.1-0.6-0.2c-0.1,0-0.3,0-0.4,0C170.9,70.3,170.5,70.4,170.1,70.6L170.1,70.6z"/>
	<polygon class="st2" points="187.3,71.4 192.6,71.4 192.6,73.2 189.1,73.2 189.1,75 192.6,75 192.6,76.8 189.1,76.8 189.1,79.4 
		192.6,79.4 192.6,81.2 187.3,81.2 	"/>
	<path class="st2" d="M207.8,72.7l-1.4,1.2c-0.5-0.7-1-1-1.5-1c-0.2,0-0.4,0.1-0.6,0.2c-0.2,0.1-0.2,0.3-0.2,0.4
		c0,0.2,0.1,0.3,0.2,0.5c0.2,0.2,0.6,0.6,1.4,1.3c0.7,0.6,1.1,1,1.3,1.1c0.4,0.4,0.6,0.7,0.8,1.1c0.2,0.4,0.2,0.7,0.2,1.1
		c0,0.8-0.3,1.5-0.8,2c-0.6,0.5-1.3,0.8-2.2,0.8c-0.7,0-1.3-0.2-1.8-0.5s-1-0.9-1.3-1.6l1.6-0.9c0.5,0.9,1,1.3,1.6,1.3
		c0.3,0,0.6-0.1,0.8-0.3c0.2-0.2,0.3-0.4,0.3-0.6c0-0.2-0.1-0.4-0.2-0.7c-0.2-0.2-0.5-0.6-1.1-1c-1.1-0.9-1.7-1.5-2.1-2
		c-0.3-0.5-0.5-0.9-0.5-1.4c0-0.7,0.3-1.3,0.8-1.8s1.1-0.7,1.9-0.7c0.5,0,0.9,0.1,1.4,0.3C206.8,71.7,207.3,72.1,207.8,72.7
		L207.8,72.7z"/>
	<polygon class="st2" points="233.3,71.4 238.6,71.4 238.6,73.2 235.1,73.2 235.1,75 238.6,75 238.6,76.8 235.1,76.8 235.1,79.4 
		238.6,79.4 238.6,81.2 233.3,81.2 	"/>
	<polygon class="st2" points="249.6,71.4 251.4,71.4 253.7,78.3 256,71.4 257.8,71.4 259.4,81.2 257.6,81.2 256.6,75 254.5,81.2 
		252.9,81.2 250.8,75 249.7,81.2 247.9,81.2 	"/>
	<path class="st2" d="M289.6,72.7l-1.4,1.2c-0.5-0.7-1-1-1.5-1c-0.2,0-0.4,0.1-0.6,0.2c-0.2,0.1-0.2,0.3-0.2,0.4
		c0,0.2,0.1,0.3,0.2,0.5c0.2,0.2,0.6,0.6,1.4,1.3c0.7,0.6,1.1,1,1.3,1.1c0.4,0.4,0.6,0.7,0.8,1.1c0.2,0.4,0.2,0.7,0.2,1.1
		c0,0.8-0.3,1.5-0.8,2c-0.6,0.5-1.3,0.8-2.2,0.8c-0.7,0-1.3-0.2-1.8-0.5s-1-0.9-1.3-1.6l1.6-0.9c0.5,0.9,1,1.3,1.6,1.3
		c0.3,0,0.6-0.1,0.8-0.3c0.2-0.2,0.3-0.4,0.3-0.6c0-0.2-0.1-0.4-0.2-0.7c-0.2-0.2-0.5-0.6-1.1-1c-1.1-0.9-1.7-1.5-2.1-2
		c-0.3-0.5-0.5-0.9-0.5-1.4c0-0.7,0.3-1.3,0.8-1.8s1.2-0.7,1.9-0.7c0.5,0,0.9,0.1,1.4,0.3C288.6,71.7,289,72.1,289.6,72.7
		L289.6,72.7z"/>
	<path class="st2" d="M304.4,71.2c1.4,0,2.6,0.5,3.6,1.5s1.5,2.2,1.5,3.7c0,1.4-0.5,2.6-1.5,3.6s-2.2,1.5-3.6,1.5
		c-1.5,0-2.7-0.5-3.6-1.5c-1-1-1.5-2.2-1.5-3.6c0-0.9,0.2-1.8,0.7-2.6s1.1-1.4,1.9-1.9C302.7,71.4,303.5,71.2,304.4,71.2L304.4,71.2
		z M304.4,73c-0.9,0-1.7,0.3-2.3,0.9c-0.6,0.6-0.9,1.4-0.9,2.4c0,1.1,0.4,1.9,1.2,2.6c0.6,0.5,1.3,0.7,2.1,0.7c0.9,0,1.6-0.3,2.2-1
		c0.6-0.6,0.9-1.4,0.9-2.4c0-0.9-0.3-1.7-0.9-2.4C306.1,73.3,305.3,73,304.4,73L304.4,73z"/>
	<polygon class="st2" points="319.6,71.4 324.4,71.4 324.4,73.2 321.4,73.2 321.4,75 324.4,75 324.4,76.8 321.4,76.8 321.4,81.2 
		319.6,81.2 	"/>
	<polygon class="st2" points="333.5,71.4 338.9,71.4 338.9,73.2 337.1,73.2 337.1,81.2 335.2,81.2 335.2,73.2 333.5,73.2 	"/>
	<polygon class="st2" points="347.7,71.4 349.6,71.4 351,77.7 352.7,71.4 354.3,71.4 356,77.7 357.4,71.4 359.2,71.4 357,81.2 
		355.3,81.2 353.5,74.9 351.7,81.2 349.9,81.2 	"/>
	<path class="st2" d="M372,71.4h1.9l3.8,9.8h-1.9l-0.8-2h-4l-0.8,2h-1.9L372,71.4L372,71.4z M373,74l-1.3,3.4h2.6L373,74L373,74z"/>
	<path class="st2" d="M387.5,71.4h2c1.1,0,1.8,0.1,2.3,0.3s0.8,0.5,1.1,1c0.3,0.4,0.4,1,0.4,1.6s-0.2,1.2-0.5,1.6
		c-0.3,0.4-0.8,0.8-1.4,1l2.3,4.4h-2l-2.2-4.2h-0.2v4.2h-1.9v-9.9H387.5z M389.4,75.2h0.6c0.6,0,1-0.1,1.2-0.2
		c0.2-0.2,0.3-0.4,0.3-0.8c0-0.2-0.1-0.4-0.2-0.6c-0.1-0.2-0.3-0.3-0.4-0.3c-0.2-0.1-0.5-0.1-1-0.1h-0.5L389.4,75.2L389.4,75.2z"/>
	<polygon class="st2" points="403.6,71.4 409,71.4 409,73.2 405.5,73.2 405.5,75 409,75 409,76.8 405.5,76.8 405.5,79.4 409,79.4 
		409,81.2 403.6,81.2 	"/>
</g>
</svg>
